<svg width="20" height="22" viewBox="0 0 20 22" fill="none" xmlns="http://www.w3.org/2000/svg">
<path d="M19 9.94727L10.49 18.4573C9.44748 19.4998 8.03349 20.0855 6.55912 20.0855C5.08475 20.0855 3.67077 19.4998 2.62823 18.4573C1.58569 17.4147 1 16.0007 1 14.5264C1 13.052 1.58569 11.638 2.62823 10.5955L11.1382 2.08549C11.8332 1.39046 12.7759 1 13.7588 1C14.7417 1 15.6844 1.39046 16.3794 2.08549C17.0744 2.78051 17.4649 3.72317 17.4649 4.70608C17.4649 5.68899 17.0744 6.63165 16.3794 7.32668L7.86016 15.8367C7.51265 16.1842 7.04132 16.3794 6.54986 16.3794C6.0584 16.3794 5.58708 16.1842 5.23956 15.8367C4.89205 15.4892 4.69682 15.0178 4.69682 14.5264C4.69682 14.0349 4.89205 13.5636 5.23956 13.2161L13.1013 5.36354" stroke="#2563EB" stroke-width="2" stroke-linecap="round" stroke-linejoin="round"/>
</svg>
