<svg width="21" height="17" viewBox="0 0 21 17" fill="none" xmlns="http://www.w3.org/2000/svg">
<path d="M14.5909 15.7272V14.0908C14.5909 13.2229 14.2461 12.3904 13.6323 11.7767C13.0186 11.1629 12.1862 10.8181 11.3182 10.8181H4.77273C3.90475 10.8181 3.07232 11.1629 2.45856 11.7767C1.8448 12.3904 1.5 13.2229 1.5 14.0908V15.7272" stroke="#666666" stroke-width="2" stroke-linecap="round" stroke-linejoin="round"/>
<path d="M8.04543 7.54545C9.85291 7.54545 11.3182 6.0802 11.3182 4.27273C11.3182 2.46525 9.85291 1 8.04543 1C6.23795 1 4.77271 2.46525 4.77271 4.27273C4.77271 6.0802 6.23795 7.54545 8.04543 7.54545Z" stroke="#666666" stroke-width="2" stroke-linecap="round" stroke-linejoin="round"/>
<path d="M19.5 15.7273V14.0909C19.4995 13.3658 19.2581 12.6614 18.8139 12.0883C18.3696 11.5152 17.7476 11.1058 17.0455 10.9246" stroke="#666666" stroke-width="2" stroke-linecap="round" stroke-linejoin="round"/>
<path d="M13.7727 1.10632C14.4767 1.28657 15.1006 1.69599 15.5462 2.27003C15.9918 2.84408 16.2337 3.55009 16.2337 4.27678C16.2337 5.00346 15.9918 5.70948 15.5462 6.28352C15.1006 6.85757 14.4767 7.26698 13.7727 7.44723" stroke="#666666" stroke-width="2" stroke-linecap="round" stroke-linejoin="round"/>
</svg>
