<svg width="20" height="17" viewBox="0 0 20 17" fill="none" xmlns="http://www.w3.org/2000/svg">
<path d="M13.2727 1H1V11.6364H13.2727V1Z" stroke="#666666" stroke-width="2" stroke-linecap="round" stroke-linejoin="round"/>
<path d="M13.2727 5.09094H16.5454L19 7.54549V11.6364H13.2727V5.09094Z" stroke="#666666" stroke-width="2" stroke-linecap="round" stroke-linejoin="round"/>
<path d="M4.68181 15.7273C5.81148 15.7273 6.72726 14.8115 6.72726 13.6818C6.72726 12.5521 5.81148 11.6364 4.68181 11.6364C3.55213 11.6364 2.63635 12.5521 2.63635 13.6818C2.63635 14.8115 3.55213 15.7273 4.68181 15.7273Z" stroke="#666666" stroke-width="2" stroke-linecap="round" stroke-linejoin="round"/>
<path d="M15.3182 15.7273C16.4478 15.7273 17.3636 14.8115 17.3636 13.6818C17.3636 12.5521 16.4478 11.6364 15.3182 11.6364C14.1885 11.6364 13.2727 12.5521 13.2727 13.6818C13.2727 14.8115 14.1885 15.7273 15.3182 15.7273Z" stroke="#666666" stroke-width="2" stroke-linecap="round" stroke-linejoin="round"/>
</svg>
