<svg width="20" height="25" viewBox="0 0 20 25" fill="none" xmlns="http://www.w3.org/2000/svg">
<path d="M14.5 3.25H16.75C17.3467 3.25 17.919 3.48705 18.341 3.90901C18.7629 4.33097 19 4.90326 19 5.5V21.25C19 21.8467 18.7629 22.419 18.341 22.841C17.919 23.2629 17.3467 23.5 16.75 23.5H3.25C2.65326 23.5 2.08097 23.2629 1.65901 22.841C1.23705 22.419 1 21.8467 1 21.25V5.5C1 4.90326 1.23705 4.33097 1.65901 3.90901C2.08097 3.48705 2.65326 3.25 3.25 3.25H5.5" stroke="#2563EB" stroke-width="2" stroke-linecap="round" stroke-linejoin="round"/>
<path d="M13.375 1H6.625C6.00368 1 5.5 1.50368 5.5 2.125V4.375C5.5 4.99632 6.00368 5.5 6.625 5.5H13.375C13.9963 5.5 14.5 4.99632 14.5 4.375V2.125C14.5 1.50368 13.9963 1 13.375 1Z" stroke="#2563EB" stroke-width="2" stroke-linecap="round" stroke-linejoin="round"/>
</svg>
